<svg id="Layer_1" data-name="Layer 1" xmlns="http://www.w3.org/2000/svg" viewBox="0 0 575.46 668.32"><defs><style>.cls-1{fill:#2f2e41;}.cls-2{fill:#ffb6b6;}.cls-3{fill:#fff;}.cls-4{fill:#f2f2f2;}.cls-5{opacity:0.2;isolation:isolate;}.cls-6{fill:#3f3d56;}.cls-7{fill:#ff6584;}.cls-8{fill:#e6e6e6;}</style></defs><title>Register</title><path class="cls-1" d="M154,203.65a115.11,115.11,0,0,1-12.56,4c-5.63,1.37-8.8,2-14.23-.1l-.55-.22A57.69,57.69,0,0,1,91.58,155c0-.38,0-.79,0-1.18,0-1.9.09-3.79.27-5.68a57.74,57.74,0,0,1,1.23-7.63h0c-4.4-4.49-6.09-10.65-5.53-16.84a27.83,27.83,0,0,1,12.58-20.81,44.26,44.26,0,0,1,23.53-6.76h16.5a71.11,71.11,0,0,1,10.36-1.63h0c33.21-2.76,59.4,19.26,56.95,46l-.06.09c-.71,1.15-1.33,2.24-1.88,3.28s-1,1.91-1.38,2.8c-3,6.84,11.37,113.06,6.21,114.67-2.94.92-14.79-78.12-12.66-63.09C200.31,217.11,169.31,198,154,203.65Z"/><polygon class="cls-2" points="204.04 395.65 250.07 493.71 73 475.78 109.97 381.64 204.04 395.65"/><path class="cls-1" d="M296.44,592.26a258,258,0,0,1-95.64,12.81l-14.09-22.85s-.59,8.51-1.47,21.52a248.47,248.47,0,0,1-45.47-9.64c-28.11-8.79-54.46-22.41-81.17-35-5.41-32.25-7.44-82,22.47-110.93l161,29.5S267.89,497,261,503.94s-8,5.84-3.44,10.38S271.89,524.93,272,528.9C272,530.45,283,558.56,296.44,592.26Z"/><path class="cls-3" d="M175.93,206.17,137,208.88l-25.14,24.29-8.8,1.57a32.83,32.83,0,0,0-27,34.25c1.81,30.68,5.87,76.53,14.34,91.4,13.14,23.06,24,15.83,13.14,23.06s-18.14,1.55-13.14,13-6.76,26.1-6.76,26.1L79,427.23l5,2,158.19,20.59s-13.67-61.51-5.12-76.61,29.3-60.78,10.78-78.65L229.71,230.9l-31.14-9.19Z"/><path class="cls-2" d="M411.37,458.59A18,18,0,0,1,394,440.05a18.54,18.54,0,0,1,.32-2.87l-74.2-50.25L328.94,363l87.7,60.34a18,18,0,0,1-5.27,35.27Z"/><path class="cls-3" d="M201.78,227.89,191,232.16,248.52,344.5,367.6,425.67l17.16-29-90.64-78.3-36.29-69.6A44.67,44.67,0,0,0,201.78,227.89Z"/><circle class="cls-2" cx="154.46" cy="157.23" r="39.06" transform="translate(-14.98 298.19) rotate(-85.27)"/><path class="cls-1" d="M188.42,140.71c-.65.35-1.3.67-1.95,1s-1.35.65-2,1c-13.07,5.93-23.72,6.59-30.18-1.94a36,36,0,0,0-3-13,20.93,20.93,0,0,1-3.45,13h-13c-13.39,8.9-20.27,17.06-11,46.25.61,1.92,4.76,70,6,75.29C109.52,254.47,92,171.88,91.58,150.11c0-.35,0-.72,0-1.08a50.41,50.41,0,0,1,.27-5.22,49.1,49.1,0,0,1,1.23-7h0a18.37,18.37,0,0,1-5.53-15.49,44.7,44.7,0,0,1,12.41-11.12,79.44,79.44,0,0,1,13.59-5.1l.33-.08c1.43-.39,2.9-.75,4.36-1a80.83,80.83,0,0,1,9.15-1.39l.64,0a6.9,6.9,0,0,1,3.49,1h0a6.89,6.89,0,0,1,3.35,5.86h14.5c.53,0,1.06,0,1.6.05,20.18.81,36.39,9.43,37.43,29.27C188.4,139.36,188.42,140,188.42,140.71Z"/><circle class="cls-1" cx="102.75" cy="116.55" r="25.73"/><path class="cls-1" d="M138.07,104.65c-2.92,13.91-17.34,22.23-31.14,18.83A25.74,25.74,0,0,1,88.11,92.33c3.4-13.79,20.15-9.82,31.14-18.82C134.81,60.78,142,85.9,138.07,104.65Z"/><path class="cls-4" d="M80.9,491.76c21.93-89.43,65.38-166.3,137.34-226.52A20.26,20.26,0,0,1,246,258.43L417.09,362.16a20.24,20.24,0,0,1,6.81,27.77c-27.47,91.77-68.61,171.39-137.34,226.52a20.26,20.26,0,0,1-27.78,6.81L87.71,519.53A20.24,20.24,0,0,1,80.9,491.76Z"/><path class="cls-5" d="M111.31,521.89a20.23,20.23,0,0,1-6.81-27.77c21.93-89.43,65.38-166.29,137.34-226.52a20,20,0,0,1,7.55-7.12L246,258.43a20.26,20.26,0,0,0-27.78,6.81c-72,60.22-115.41,137.09-137.34,226.52a20.24,20.24,0,0,0,6.81,27.77L258.78,623.26a20.15,20.15,0,0,0,20.23.32Z"/><path class="cls-3" d="M311.93,471.93,197.1,402.74A8,8,0,0,1,205.4,389l114.83,69.19a8,8,0,0,1-8.3,13.78Z"/><path class="cls-3" d="M245.13,380.18,219.87,365a8,8,0,1,1,8.26-13.81l0,0,25.26,15.22a8,8,0,0,1-8.3,13.78Z"/><path class="cls-3" d="M293.68,502.22,178.85,433a8,8,0,0,1,8.29-13.79h0L302,488.44a8,8,0,0,1-8.3,13.78Z"/><circle class="cls-6" cx="326.51" cy="307.93" r="33.54"/><circle class="cls-3" cx="268.7" cy="595.63" r="71.69"/><path class="cls-6" d="M268.7,668.32a72.69,72.69,0,1,1,72.68-72.69A72.69,72.69,0,0,1,268.7,668.32Zm0-143.37a70.69,70.69,0,1,0,70.68,70.68h0A70.75,70.75,0,0,0,268.7,525Z"/><path class="cls-3" d="M258.92,632.94a8,8,0,0,1-6.38-3.19L233,603.68a8,8,0,1,1,12.75-9.59v0l12.8,17.06,32.86-49.3a8,8,0,0,1,13.28,8.83v0l-39.12,58.67a8,8,0,0,1-6.41,3.55Z"/><ellipse class="cls-3" cx="499.9" cy="228.78" rx="5.18" ry="3.6" transform="translate(-17.67 43.42) rotate(-4.89)"/><ellipse class="cls-6" cx="531.95" cy="217.91" rx="5.18" ry="3.6" transform="translate(-16.63 46.11) rotate(-4.89)"/><ellipse class="cls-7" cx="484.71" cy="204.33" rx="5.18" ry="3.6" transform="translate(-15.65 42.04) rotate(-4.89)"/><ellipse class="cls-8" cx="470.85" cy="196.84" rx="2.28" ry="3.27" transform="translate(-31.81 108.61) rotate(-12.73)"/><ellipse class="cls-6" cx="461.28" cy="177.71" rx="2.28" ry="3.27" transform="translate(-27.82 106.03) rotate(-12.73)"/><ellipse class="cls-8" cx="507.2" cy="204.58" rx="2.28" ry="3.27" transform="translate(-32.62 116.81) rotate(-12.73)"/><ellipse class="cls-7" cx="493.2" cy="216.2" rx="2.28" ry="3.27" transform="translate(-35.52 114.02) rotate(-12.73)"/><ellipse class="cls-6" cx="518.69" cy="225.66" rx="2.28" ry="3.27" transform="translate(-36.98 119.86) rotate(-12.73)"/><ellipse class="cls-3" cx="362.86" cy="82.92" rx="3.6" ry="5.18" transform="translate(193.34 414.29) rotate(-75.78)"/><ellipse class="cls-6" cx="329.02" cy="82.7" rx="3.6" ry="5.18" transform="translate(168.02 381.32) rotate(-75.78)"/><ellipse class="cls-7" cx="369.21" cy="111" rx="3.6" ry="5.18" transform="translate(170.92 441.63) rotate(-75.78)"/><ellipse class="cls-8" cx="379.86" cy="122.61" rx="3.27" ry="2.28" transform="translate(215.83 486.5) rotate(-83.62)"/><ellipse class="cls-6" cx="382.64" cy="143.81" rx="3.27" ry="2.28" transform="translate(197.23 508.12) rotate(-83.62)"/><ellipse class="cls-8" cx="348.04" cy="103.4" rx="3.27" ry="2.28" transform="translate(206.63 437.81) rotate(-83.62)"/><ellipse class="cls-7" cx="365.07" cy="97" rx="3.27" ry="2.28" transform="translate(228.13 449.04) rotate(-83.62)"/><ellipse class="cls-6" cx="344.09" cy="79.71" rx="3.27" ry="2.28" transform="translate(226.66 412.82) rotate(-83.62)"/><path class="cls-2" d="M91.57,492.7a19.07,19.07,0,0,1-10.42-24.88,19.84,19.84,0,0,1,1.38-2.72l-55.1-77.46,17.68-20.51,64.77,92.48A19,19,0,0,1,91.57,492.7Z"/><path class="cls-3" d="M92.84,247.23h0a13.61,13.61,0,0,0-17.39,3.06L1,354.42l69,98,27-29-42-66,55.82-53.14A44.67,44.67,0,0,0,92.84,247.23Z"/></svg>